<?xml version="1.0" encoding="UTF-8"?>
<svg id="Layer_2" data-name="Layer 2" xmlns="http://www.w3.org/2000/svg" viewBox="0 0 152.5 103.5">
  <defs>
    <style>
      .cls-1 {
        fill: #fff;
        stroke-width: 0px;
      }
    </style>
  </defs>
  <g>
    <path class="cls-1" d="M22.21,41.06V12.5h-7.32v-4.02h11.4v32.58h-4.08ZM15.01,48.86v-4.02h18.36v4.02H15.01Z"/>
    <path class="cls-1" d="M51.79,49.58c-1.72-.12-3.29-.51-4.71-1.17-1.42-.66-2.6-1.45-3.54-2.37-.94-.92-1.77-2-2.49-3.24-.72-1.24-1.28-2.46-1.68-3.66-.4-1.2-.72-2.5-.96-3.9-.24-1.4-.4-2.6-.48-3.6-.08-1-.12-2-.12-3,0-2.04.12-3.98.36-5.82.24-1.84.68-3.67,1.32-5.49.64-1.82,1.47-3.4,2.49-4.74,1.02-1.34,2.37-2.45,4.05-3.33,1.68-.88,3.6-1.36,5.76-1.44v3.84c-1.72.2-3.2.74-4.44,1.62-1.24.88-2.23,2.09-2.97,3.63-.74,1.54-1.28,3.26-1.62,5.16-.34,1.9-.55,4.09-.63,6.57-.04,1.68.08,3.38.36,5.1.28,1.72.75,3.46,1.41,5.22.66,1.76,1.67,3.27,3.03,4.53,1.36,1.26,2.98,2.03,4.86,2.31v3.78ZM54.91,49.58v-3.78c1.88-.28,3.5-1.05,4.86-2.31,1.36-1.26,2.37-2.77,3.03-4.53.66-1.76,1.12-3.5,1.38-5.22.26-1.72.39-3.42.39-5.1-.08-2.48-.29-4.67-.63-6.57-.34-1.9-.88-3.62-1.62-5.16-.74-1.54-1.73-2.75-2.97-3.63-1.24-.88-2.72-1.42-4.44-1.62v-3.84c2.16.08,4.08.56,5.76,1.44,1.68.88,3.03,1.99,4.05,3.33,1.02,1.34,1.85,2.92,2.49,4.74.64,1.82,1.08,3.65,1.32,5.49.24,1.84.36,3.78.36,5.82,0,1-.04,2-.12,3-.08,1-.24,2.2-.48,3.6-.24,1.4-.56,2.7-.96,3.9-.4,1.2-.96,2.42-1.68,3.66-.72,1.24-1.55,2.32-2.49,3.24-.94.92-2.12,1.71-3.54,2.37-1.42.66-2.99,1.05-4.71,1.17Z"/>
    <path class="cls-1" d="M89.29,49.58c-1.72-.12-3.29-.51-4.71-1.17-1.42-.66-2.6-1.45-3.54-2.37-.94-.92-1.77-2-2.49-3.24-.72-1.24-1.28-2.46-1.68-3.66-.4-1.2-.72-2.5-.96-3.9-.24-1.4-.4-2.6-.48-3.6-.08-1-.12-2-.12-3,0-2.04.12-3.98.36-5.82.24-1.84.68-3.67,1.32-5.49.64-1.82,1.47-3.4,2.49-4.74,1.02-1.34,2.37-2.45,4.05-3.33,1.68-.88,3.6-1.36,5.76-1.44v3.84c-1.72.2-3.2.74-4.44,1.62-1.24.88-2.23,2.09-2.97,3.63-.74,1.54-1.28,3.26-1.62,5.16-.34,1.9-.55,4.09-.63,6.57-.04,1.68.08,3.38.36,5.1.28,1.72.75,3.46,1.41,5.22.66,1.76,1.67,3.27,3.03,4.53,1.36,1.26,2.98,2.03,4.86,2.31v3.78ZM92.41,49.58v-3.78c1.88-.28,3.5-1.05,4.86-2.31,1.36-1.26,2.37-2.77,3.03-4.53.66-1.76,1.12-3.5,1.38-5.22.26-1.72.39-3.42.39-5.1-.08-2.48-.29-4.67-.63-6.57-.34-1.9-.88-3.62-1.62-5.16-.74-1.54-1.73-2.75-2.97-3.63-1.24-.88-2.72-1.42-4.44-1.62v-3.84c2.16.08,4.08.56,5.76,1.44,1.68.88,3.03,1.99,4.05,3.33,1.02,1.34,1.85,2.92,2.49,4.74.64,1.82,1.08,3.65,1.32,5.49.24,1.84.36,3.78.36,5.82,0,1-.04,2-.12,3-.08,1-.24,2.2-.48,3.6-.24,1.4-.56,2.7-.96,3.9-.4,1.2-.96,2.42-1.68,3.66-.72,1.24-1.55,2.32-2.49,3.24-.94.92-2.12,1.71-3.54,2.37-1.42.66-2.99,1.05-4.71,1.17Z"/>
    <path class="cls-1" d="M126.79,49.58c-1.72-.12-3.29-.51-4.71-1.17-1.42-.66-2.6-1.45-3.54-2.37-.94-.92-1.77-2-2.49-3.24-.72-1.24-1.28-2.46-1.68-3.66-.4-1.2-.72-2.5-.96-3.9-.24-1.4-.4-2.6-.48-3.6-.08-1-.12-2-.12-3,0-2.04.12-3.98.36-5.82.24-1.84.68-3.67,1.32-5.49.64-1.82,1.47-3.4,2.49-4.74,1.02-1.34,2.37-2.45,4.05-3.33,1.68-.88,3.6-1.36,5.76-1.44v3.84c-1.72.2-3.2.74-4.44,1.62-1.24.88-2.23,2.09-2.97,3.63-.74,1.54-1.28,3.26-1.62,5.16-.34,1.9-.55,4.09-.63,6.57-.04,1.68.08,3.38.36,5.1.28,1.72.75,3.46,1.41,5.22.66,1.76,1.67,3.27,3.03,4.53,1.36,1.26,2.98,2.03,4.86,2.31v3.78ZM129.91,49.58v-3.78c1.88-.28,3.5-1.05,4.86-2.31,1.36-1.26,2.37-2.77,3.03-4.53.66-1.76,1.12-3.5,1.38-5.22.26-1.72.39-3.42.39-5.1-.08-2.48-.29-4.67-.63-6.57-.34-1.9-.88-3.62-1.62-5.16-.74-1.54-1.73-2.75-2.97-3.63-1.24-.88-2.72-1.42-4.44-1.62v-3.84c2.16.08,4.08.56,5.76,1.44,1.68.88,3.03,1.99,4.05,3.33,1.02,1.34,1.85,2.92,2.49,4.74.64,1.82,1.08,3.65,1.32,5.49.24,1.84.36,3.78.36,5.82,0,1-.04,2-.12,3-.08,1-.24,2.2-.48,3.6-.24,1.4-.56,2.7-.96,3.9-.4,1.2-.96,2.42-1.68,3.66-.72,1.24-1.55,2.32-2.49,3.24-.94.92-2.12,1.71-3.54,2.37-1.42.66-2.99,1.05-4.71,1.17Z"/>
  </g>
  <g>
    <path class="cls-1" d="M11.76,66.4c.44-3.32,1.88-6.05,4.32-8.19,2.44-2.14,5.38-3.21,8.82-3.21,3.8,0,7,1.3,9.6,3.9l-2.76,2.88c-1.92-1.96-4.2-2.94-6.84-2.94-2.32,0-4.32.71-6,2.13s-2.68,3.23-3,5.43h-4.14ZM24.9,81.52c-3.6,0-6.62-1.13-9.06-3.39s-3.8-5.13-4.08-8.61h4.14c.28,2.4,1.23,4.35,2.85,5.85s3.67,2.25,6.15,2.25,4.76-.9,6.6-2.7l2.88,2.7c-2.12,2.6-5.28,3.9-9.48,3.9Z"/>
    <path class="cls-1" d="M53.28,81.46c-3.12,0-5.7-.87-7.74-2.61s-3.06-4.31-3.06-7.71v-15.66h4.32v15.66c0,2.04.57,3.62,1.71,4.74,1.14,1.12,2.74,1.68,4.8,1.68s3.65-.56,4.77-1.68,1.68-2.7,1.68-4.74v-15.66h4.32v15.66c0,3.36-1.01,5.92-3.03,7.68-2.02,1.76-4.61,2.64-7.77,2.64Z"/>
    <path class="cls-1" d="M85.2,95.86v-36.48h-14.04v-3.9h17.94v40.38h-3.9ZM92.52,80.98v-25.5h17.94v3.9h-14.1v21.6h-3.84Z"/>
    <path class="cls-1" d="M128.64,96.64c-5.36-.08-9.4-2.1-12.12-6.06l3-2.58c2.24,3.08,5.24,4.62,9,4.62,2.44,0,4.36-.65,5.76-1.95,1.4-1.3,2.08-3.05,2.04-5.25-.04-1.68-.7-3.14-1.98-4.38-1.28-1.24-3.02-2.42-5.22-3.54l2.04-3.48c1.36.72,2.53,1.4,3.51,2.04.98.64,1.96,1.42,2.94,2.34.98.92,1.74,1.93,2.28,3.03.54,1.1.83,2.31.87,3.63.08,1.92-.22,3.64-.9,5.16-.68,1.52-1.62,2.73-2.82,3.63-1.2.9-2.52,1.59-3.96,2.07-1.44.48-2.92.72-4.44.72ZM126.24,76.12c-5.76-2.48-8.7-6.04-8.82-10.68-.12-3.32.88-5.99,3-8.01,2.12-2.02,4.88-3.03,8.28-3.03,4.4,0,7.98,1.32,10.74,3.96l-2.28,3.3c-2.36-2.24-5.18-3.36-8.46-3.36-2.28,0-4.01.68-5.19,2.04-1.18,1.36-1.77,2.88-1.77,4.56,0,1.84.57,3.32,1.71,4.44,1.14,1.12,2.75,2.18,4.83,3.18l-2.04,3.6Z"/>
  </g>
</svg>